<svg width="48"  height="48" xmlns="http://www.w3.org/2000/svg" fill="#212121" style="background-color:WhiteSmoke" role="img" version="1.1" viewBox="0 0 24 24"><path d="M14.152 2.64c.426 0 .845.027 1.258.08l-.604 1.12-1.116 2.072-.757 1.414c-.027.05-.056.07-.114.067-1.187-.08-2.017.235-2.156.266l.2-.75 1.015-3.768c.023-.085.047-.17.068-.256a10.03 10.03 0 0 1 2.206-.244zm2.544.327c1.19.312 2.298.838 3.277 1.534l-1.797 1.513-1.712 1.435c-.288.242-.576.486-.861.732-.046.04-.08.043-.137.017a5.77 5.77 0 0 0-1.893-.708l.463-.67 1.83-2.65c.277-.4.554-.8.83-1.203zm-5.7.181c-.015.104-.03.201-.046.298a1675.621 1675.621 0 0 1-.58 3.327c-.06.352-.115.645-.17.998-.01.066-.051.076-.093.093-.886.368-1.605 1.01-1.837 1.236l-.053-.635c-.02-.227-.037-.453-.055-.679-.02-.235-.037-.47-.057-.704l-.06-.685-.057-.678-.06-.703c-.005-.066-.015-.132-.014-.198v-.005a10.086 10.086 0 0 1 3.083-1.665zM7.144 5.495l.142.632.522 2.323c.066.293.133.568.195.862a.123.123 0 0 1-.024.093 6.798 6.798 0 0 0-.955 1.466l-.277-.555-1.29-2.593a.142.142 0 0 1-.018-.063l.125-.207c.249-.353.49-.713.755-1.055.197-.254.433-.477.65-.714zM12.48 7.63c.117 0 .234.003.35.011.808.053 1.562.298 2.275.676.457.242.878.536 1.27.871.067.057.13.118.202.184l-1.383.951-3.723 2.544c-.308.21-.615.425-.925.633-.07.046-.092.086-.072.172.08.346.147.694.22 1.04.003.015.01.028.017.05l.622-.124 1.24 2.606c-.147-.02-.28-.04-.416-.057-.285-.032-.57-.067-.856-.09a7.53 7.53 0 0 0-.758-.032c-.453.01-.907.038-1.34.192-.242.086-.46.208-.622.432-.11-.107-.22-.208-.32-.316a5.686 5.686 0 0 1-1.01-1.503 5.857 5.857 0 0 1-.469-1.566 5.387 5.387 0 0 1-.05-1.28 5.775 5.775 0 0 1 1.052-2.916 5.85 5.85 0 0 1 3.804-2.4 5.39 5.39 0 0 1 .895-.077zm-1.39.785c-.026.011-.051.021-.076.033a7.446 7.446 0 0 0-1.525.95 6.121 6.121 0 0 0-1.403 1.555 4.536 4.536 0 0 0-.686 2.253c-.018.485.05.962.17 1.43.17.676.454 1.305.798 1.908.033.058.074.05.115.03.119-.055.235-.117.357-.18l-.04-.07c-.164-.286-.344-.565-.49-.861-.392-.805-.598-1.65-.52-2.554.03-.33.09-.652.193-.966.372-1.127 1.09-2.004 1.988-2.75.35-.29.723-.548 1.119-.778zM4.953 8.6l.347.464c.506.68 1.018 1.358 1.524 2.037.037.054.065.095.037.166-.143.366-.27.83-.318 1.205-.124-.11-.247-.216-.36-.317L4.68 10.827c-.116-.103-.233-.205-.346-.312a.11.11 0 0 1-.028-.052 10.186 10.186 0 0 1 .617-1.808zm12.323.595.135.816c.057.353.11.706.168 1.06l.193 1.192c.036.217.07.435.107.653.01.057.003.086-.067.1-.79.152-1.581.31-2.372.465-.987.194-1.975.385-2.962.578-.516.101-1.03.205-1.546.307-.01.002-.017 0-.032 0-.058-.208-.12-.415-.172-.624-.006-.022.016-.06.038-.08zM4.134 11.37l.572.356c.566.352 1.143.707 1.71 1.057.055.034.075.068.072.13-.01.152-.045.858.035 1.355l-.42-.147c-.677-.234-1.353-.469-2.03-.7a.188.188 0 0 1-.03-.014 10.418 10.418 0 0 1 .09-2.037zm-.018 2.834c.117.022.23.043.342.067.696.145 1.387.287 2.082.435.03.007.075.042.078.07.06.28.249.818.257.85h-.401c-.314 0-.628-.003-.942 0-.37.003-.741.01-1.112.017h-.007a10.21 10.21 0 0 1-.297-1.44zm8.243.56c.02 0 .05.02.067.037.304.302.597.615.91.905.265.244.553.46.83.69a5.78 5.78 0 0 1 1.04 1.113c.52.727.896 1.522 1.105 2.392a.481.481 0 0 1-.032.25c-.09.265-.282.457-.494.628-.296.24-.63.42-.982.566-.073.03-.1.015-.132-.056-.363-.794-.73-1.586-1.096-2.378l-1.487-3.223-.347-.75-.02-.052c.214-.04.424-.083.634-.12h.004zM6.966 15.97c.035 0 .06.017.084.06.132.232.158.337.43.76l-2.114 1.127a10.14 10.14 0 0 1-.667-1.413l.49-.117 1.732-.413a.18.18 0 0 1 .046-.006zm3.534 1.412c.118 0 .235.005.353.015.537.045 1.072.111 1.608.171.027.003.063.03.075.055.217.47.432.94.646 1.41.01.02.01.052 0 .07l-.597 1.078c-.417-.07-.824-.148-1.234-.208a14.496 14.496 0 0 0-.948-.108 11.76 11.76 0 0 0-.973-.049c-.543 0-1.083.05-1.603.225l-.045.014.305-.71c.19-.446.388-.89.57-1.34a.647.647 0 0 1 .307-.334 2.2 2.2 0 0 1 .76-.23c.258-.036.517-.059.776-.059zm.02.27a5.133 5.133 0 0 0-1.324.21.155.155 0 0 0-.083.076c-.17.345-.335.692-.5 1.04-.051.103-.1.21-.15.314l.023.02c.005-.013.007-.028.015-.039.285-.4.57-.8.857-1.198a.234.234 0 0 1 .113-.08c.535-.165 1.072-.314 1.645-.272-.027-.008-.054-.017-.081-.022a2.644 2.644 0 0 0-.515-.048z" fill="#212121" fill-opacity="1" mask="none" paint-order="normal"/></svg>