<svg width="24" height="24" viewBox="0 0 20 20" fill="none" style="background-color:WhiteSmoke" xmlns="http://www.w3.org/2000/svg"><path d="M10 2C7.79086 2 6 3.79086 6 6C6 6.72857 6.19479 7.41165 6.53513 8H3.42308C2.63713 8 2 8.63713 2 9.42308C2 12.5031 4.49687 15 7.57692 15H8.8507C8.6564 14.5328 8.5 13.9409 8.5 13.2463C8.5 12.0481 9.16823 11.0368 9.96288 10.3538C10.7782 9.65303 11.8684 9.16103 13.0639 9.01159C13.3613 8.97442 13.6568 8.95762 13.9459 8.95598C13.7341 8.72857 13.4875 8.53409 13.2144 8.38109C13.3049 8.25919 13.3885 8.13198 13.4649 8H15.1666C16.1791 8 16.9999 7.17919 16.9999 6.16667C16.9999 5.52233 16.4776 5 15.8333 5H13.874C13.4299 3.27477 11.8638 2 10 2ZM17.5 10.4999C17.6733 10.4999 17.8342 10.5896 17.9253 10.737C18.0164 10.8845 18.0247 11.0685 17.9472 11.2235C17.896 11.3259 17.8124 11.461 17.7287 11.5962L17.7125 11.6223C17.617 11.7767 17.5056 11.9571 17.3884 12.1635C17.1536 12.5766 16.9014 13.0833 16.7279 13.6471C16.6939 13.7574 16.6581 13.8847 16.619 14.0242C16.4628 14.5807 16.2525 15.3301 15.8844 15.9605C15.6461 16.3685 15.3276 16.7577 14.8878 17.044C14.4435 17.3332 13.9021 17.4999 13.25 17.4999C12.1909 17.4999 11.4424 16.966 10.9774 16.4651C10.7447 16.2145 10.5759 15.9655 10.4649 15.7791C10.4383 15.7345 10.4149 15.6932 10.3946 15.6559C9.78966 16.2682 9.33058 16.9571 8.94732 17.7236C8.82383 17.9706 8.52349 18.0707 8.2765 17.9472C8.02951 17.8237 7.9294 17.5234 8.0529 17.2764C8.80681 15.7686 9.83581 14.5305 11.488 13.5669C12.1516 13.1511 12.8888 12.7831 13.6858 12.4642C13.9422 12.3617 14.0669 12.0707 13.9643 11.8143C13.8618 11.5579 13.5708 11.4332 13.3144 11.5358C11.8829 12.1084 10.5889 12.8493 9.53801 13.7662C9.51384 13.6024 9.5 13.4289 9.5 13.2463C9.5 12.4822 9.8093 11.7342 10.4402 11.1457C11.0666 10.5612 11.9864 10.154 13.188 10.0039C14.3855 9.85421 15.3828 9.98779 16.14 10.1565C16.4681 10.2296 16.7538 10.31 16.9812 10.3741L17.0761 10.4007C17.1994 10.4352 17.2962 10.4613 17.375 10.4789C17.4136 10.4875 17.4435 10.4931 17.4663 10.4964C17.4775 10.498 17.4859 10.4989 17.4919 10.4994C17.4975 10.4999 17.5 10.4999 17.5 10.4999Z" fill="#C0C0C0"/>
<path d="M10 3C8.34315 3 7 4.34315 7 6C7 6.80363 7.31598 7.53345 7.83048 8.07201C7.93421 8.18059 8 8.32193 8 8.47209C8 8.76365 7.76365 9 7.47209 9H3.42308C3.18942 9 3 9.18942 3 9.42308C3 11.9508 5.04916 14 7.57692 14H8.70287C8.75454 14.0891 8.81545 14.173 8.88494 14.2503C8.66507 14.4868 8.4597 14.7363 8.26501 15H7.57692C4.49687 15 2 12.5031 2 9.42308C2 8.63713 2.63713 8 3.42308 8H6.53513C6.19479 7.41165 6 6.72857 6 6C6 3.79086 7.79086 2 10 2C11.8638 2 13.4299 3.27477 13.874 5H15.8333C16.4777 5 17 5.52233 17 6.16667C17 7.17919 16.1792 8 15.1667 8H13.4649C13.3885 8.13198 13.3049 8.2592 13.2144 8.38109C13.5768 8.58416 13.8928 8.86028 14.1423 9.1895C13.7903 9.19449 13.4278 9.21609 13.0639 9.26158C12.9757 9.2726 12.8887 9.28516 12.8028 9.29923C12.6012 9.17414 12.3757 9.08392 12.1347 9.03696C11.9249 8.99608 11.75 8.82671 11.75 8.61294C11.75 8.48129 11.8178 8.35989 11.9226 8.28014C12.0073 8.21565 12.1087 8.13114 12.2026 8.03391L12.205 8.03428C12.478 7.73842 12.6923 7.38748 12.8293 7H15.1667C15.6269 7 16 6.6269 16 6.16667C16 6.07462 15.9254 6 15.8333 6H13C13 4.34315 11.6569 3 10 3ZM15.6574 11.1539C14.9433 11.0046 14.1437 10.8922 13.3119 10.9962C11.7434 11.1922 10.9306 12.2691 10.4639 13.4326C10.3611 13.6889 10.07 13.8133 9.81373 13.7105C9.55744 13.6077 9.43302 13.3165 9.53583 13.0603C10.0691 11.7308 11.1064 10.2641 13.1879 10.0039C14.1811 9.87971 15.1071 10.0172 15.862 10.175C16.087 10.2221 16.3145 10.275 16.5186 10.3226C16.6443 10.3518 16.7612 10.379 16.8632 10.4015C17.1581 10.4666 17.361 10.5 17.4999 10.5C17.6732 10.5 17.8341 10.5897 17.9252 10.7371C18.0163 10.8845 18.0246 11.0686 17.9471 11.2236C17.8959 11.326 17.8122 11.4611 17.7286 11.5963L17.7124 11.6224C17.6169 11.7768 17.5055 11.9572 17.3883 12.1635C17.1535 12.5767 16.9013 13.0834 16.7277 13.6471C16.6938 13.7575 16.658 13.8848 16.6189 14.0243C16.4627 14.5809 16.2523 15.3302 15.8842 15.9606C15.646 16.3686 15.3275 16.7578 14.8877 17.0441C14.4434 17.3333 13.902 17.5 13.2499 17.5C12.1841 17.5 11.4222 16.939 10.9488 16.4221C10.7109 16.1623 10.5364 15.9043 10.4211 15.7114C10.4106 15.6937 10.4004 15.6764 10.3908 15.6598C9.78774 16.2711 9.32977 16.9587 8.94732 17.7236C8.82383 17.9706 8.52349 18.0707 8.2765 17.9472C8.02951 17.8237 7.9294 17.5234 8.0529 17.2764C9.11407 15.1541 10.7202 13.5663 13.842 12.5257C14.104 12.4383 14.3871 12.5799 14.4745 12.8419C14.5618 13.1039 14.4202 13.387 14.1582 13.4744C12.9067 13.8915 11.9358 14.3943 11.161 14.9838C11.1681 14.9959 11.175 15.0085 11.1817 15.0217C11.2024 15.0626 11.235 15.1238 11.2796 15.1985C11.3695 15.349 11.5049 15.5487 11.6863 15.7467C12.0515 16.1454 12.5657 16.5 13.2499 16.5C13.7228 16.5 14.0718 16.382 14.3421 16.206C14.617 16.0271 14.8373 15.7705 15.0207 15.4563C15.317 14.9489 15.4807 14.3699 15.6354 13.8227C15.6806 13.6625 15.7252 13.505 15.772 13.3528C15.9749 12.694 16.2644 12.1174 16.5188 11.6695C16.5761 11.5688 16.6319 11.474 16.6847 11.3861L16.6478 11.3781C16.5195 11.3498 16.3941 11.3205 16.266 11.2906C16.0757 11.2461 15.8791 11.2002 15.6574 11.1539Z" fill="black"/>
</svg>